<?xml version="1.0" encoding="UTF-8" standalone="no"?>
<svg width="30px" height="24px" viewBox="0 0 30 24" version="1.1" xmlns="http://www.w3.org/2000/svg" xmlns:xlink="http://www.w3.org/1999/xlink" xmlns:sketch="http://www.bohemiancoding.com/sketch/ns">
    <!-- Generator: Sketch 3.3.2 (12043) - http://www.bohemiancoding.com/sketch -->
    <title>Shape</title>
    <desc>Created with Sketch.</desc>
    <defs></defs>
    <g id="Page-1" stroke="none" stroke-width="1" fill="none" fill-rule="evenodd" sketch:type="MSPage">
        <g id="twitter" sketch:type="MSLayerGroup" transform="translate(-16.000000, -23.000000)" fill="#9A9A9A">
            <g id="Page-1" sketch:type="MSShapeGroup">
                <g id="Colour">
                    <g id="Row-1">
                        <g id="Twitter">
                            <path d="M30.6868553,30.4224435 L29.6376363,30.2953331 C25.8184791,29.8080769 22.4819627,28.1556426 19.6490714,25.3804004 L18.2641024,24.0033719 L17.9073679,25.0202545 C17.1519302,27.2870554 17.634571,29.6809665 19.2083995,31.2910307 C20.0477747,32.180803 19.8589152,32.3079133 18.410993,31.778287 C17.9073679,31.6088065 17.4666959,31.4816962 17.4247272,31.5452514 C17.2778365,31.6935467 17.7814616,33.6213867 18.1801649,34.3840487 C18.7257587,35.4433014 19.8379309,36.4813691 21.0550249,37.0957357 L22.0832595,37.582992 L20.8661655,37.604177 C19.6910402,37.604177 19.6490714,37.6253621 19.7749777,38.0702482 C20.1946653,39.4472768 21.8524313,40.9090455 23.6990568,41.5445972 L25.0000883,41.9894833 L23.8669318,42.6674051 C22.1881814,43.6419176 20.2156497,44.192729 18.243118,44.2350991 C17.2988209,44.2562842 16.5223988,44.3410244 16.5223988,44.4045796 C16.5223988,44.6164301 19.0824932,45.8027932 20.5723842,46.2688644 C25.0420571,47.645893 30.3511052,47.0527114 34.3381374,44.7011703 C37.1710286,43.027551 40.0039199,39.7014974 41.3259359,36.4813691 C42.0394048,34.7653797 42.7528737,31.6299916 42.7528737,30.1258527 C42.7528737,29.1513402 42.8158268,29.0242299 43.9909521,27.8590518 C44.6834366,27.1811301 45.3339524,26.4396532 45.4598587,26.2278026 C45.6697025,25.8252866 45.6487181,25.8252866 44.5785147,26.1854325 C42.7948425,26.8209842 42.5430299,26.7362439 43.4243739,25.7829165 C44.0748896,25.1049947 44.8513117,23.8762616 44.8513117,23.5161156 C44.8513117,23.4525605 44.536546,23.5584857 44.1798115,23.7491512 C43.8020927,23.9610018 42.9627175,24.2787776 42.3331861,24.4694431 L41.2000296,24.829589 L40.171795,24.1304822 C39.6052167,23.7491512 38.8078103,23.3254501 38.3881227,23.1983398 C37.3179193,22.901749 35.6811377,22.9441191 34.7158562,23.28308 C32.0928087,24.2364075 30.4350427,26.6938738 30.6239021,29.3843758 L30.6868553,30.4224435 Z" id="Shape"></path>
                        </g>
                    </g>
                </g>
            </g>
        </g>
    </g>
</svg>